<svg xmlns="http://www.w3.org/2000/svg" width="50" height="50" version="1.0" viewBox="0 0 37.5 37.5"><defs><clipPath id="a"><path d="M22 15h13.156v13H22Zm0 0"/></clipPath><clipPath id="b"><path d="M24 6.055h9V15h-9Zm0 0"/></clipPath><clipPath id="c"><path d="M1.852 15H15v13H1.852Zm0 0"/></clipPath><clipPath id="d"><path d="M4 6.055h9V15H4Zm0 0"/></clipPath></defs><path fill="#ff8e8e" d="M20.234 18.914h-3.46a4.892 4.892 0 0 0-4.895 4.895v5.574a19.336 19.336 0 0 0 13.242 0v-5.574a4.883 4.883 0 0 0-4.887-4.895Zm2.286-5.621a4.054 4.054 0 0 1-.676 2.23 3.996 3.996 0 0 1-1.805 1.48 4.109 4.109 0 0 1-.754.231 4.04 4.04 0 0 1-.781.075c-.266 0-.527-.024-.785-.075a4.302 4.302 0 0 1-.754-.23 3.928 3.928 0 0 1-.692-.371 3.915 3.915 0 0 1-.609-.5 3.778 3.778 0 0 1-.5-.61 4.203 4.203 0 0 1-.371-.691 3.982 3.982 0 0 1-.227-.754 3.77 3.77 0 0 1-.078-.785c0-.262.024-.523.078-.781.051-.258.125-.512.227-.754a4.24 4.24 0 0 1 .371-.695 4.15 4.15 0 0 1 .5-.61 4.124 4.124 0 0 1 1.3-.867 3.994 3.994 0 0 1 3.77.371c.22.145.422.313.61.496.183.188.351.39.5.61.144.218.27.453.37.695a4.045 4.045 0 0 1 .305 1.535Zm0 0"/><g clip-path="url(#a)"><path fill="#ff8e8e" d="M30.258 15.691h-3.465a4.889 4.889 0 0 0-4.36 2.684 5.867 5.867 0 0 1 3.66 5.43v3.367c3.04.387 6.15.047 9.06-1.012v-5.574a4.895 4.895 0 0 0-4.895-4.895Zm0 0"/></g><g clip-path="url(#b)"><path fill="#ff8e8e" d="M32.543 10.07a4.055 4.055 0 0 1-.309 1.54 4.124 4.124 0 0 1-.867 1.3 4.15 4.15 0 0 1-.61.5 4.24 4.24 0 0 1-.695.371 3.898 3.898 0 0 1-.753.227 3.76 3.76 0 0 1-.782.078 3.77 3.77 0 0 1-.785-.078 3.982 3.982 0 0 1-.754-.227 4.203 4.203 0 0 1-.691-.37 3.778 3.778 0 0 1-.61-.5 3.915 3.915 0 0 1-.5-.61 3.928 3.928 0 0 1-.37-.692 4.302 4.302 0 0 1-.231-.754 4.052 4.052 0 0 1-.074-.785c0-.261.023-.523.074-.78a4.109 4.109 0 0 1 .602-1.45 3.996 3.996 0 0 1 2.555-1.707c.257-.051.519-.078.784-.078a4.045 4.045 0 0 1 2.84 1.175 4.124 4.124 0 0 1 .867 1.305 4.045 4.045 0 0 1 .309 1.535Zm0 0"/></g><g clip-path="url(#c)"><path fill="#ff8e8e" d="M14.574 18.383a4.883 4.883 0 0 0-4.363-2.684H6.75a4.883 4.883 0 0 0-4.895 4.887v5.574a19.257 19.257 0 0 0 9.055 1.012v-3.367a5.851 5.851 0 0 1 3.664-5.422Zm0 0"/></g><g clip-path="url(#d)"><path fill="#ff8e8e" d="M12.496 10.07a4.055 4.055 0 0 1-.676 2.23 4.15 4.15 0 0 1-.5.61 3.98 3.98 0 0 1-1.304.871 3.861 3.861 0 0 1-.75.227c-.262.055-.52.078-.786.078-.261 0-.523-.024-.785-.078a3.861 3.861 0 0 1-.75-.227 4.087 4.087 0 0 1-.695-.37 4.15 4.15 0 0 1-.61-.5 4.15 4.15 0 0 1-.5-.61 4.203 4.203 0 0 1-.37-.692 4.055 4.055 0 0 1-.305-1.54A4.045 4.045 0 0 1 5.64 7.231c.187-.183.39-.351.609-.5a4.057 4.057 0 0 1 1.445-.597c.262-.051.524-.078.785-.078a4.085 4.085 0 0 1 1.536.304c.246.102.476.227.695.371.219.149.422.317.61.5a4.087 4.087 0 0 1 .871 1.305 4.112 4.112 0 0 1 .304 1.535Zm0 0"/></g></svg>