<svg xmlns="http://www.w3.org/2000/svg" width="50" height="50" version="1.2" viewBox="0 0 37.5 37.5"><defs><clipPath id="a"><path d="M31 7h4v4h-4Zm0 0"/></clipPath><clipPath id="b"><path d="m32.68 4.688 4.05 7.062-4.492 2.578-4.05-7.062Zm0 0"/></clipPath><clipPath id="c"><path d="m32.68 4.688 4.05 7.062-4.492 2.578-4.05-7.062Zm0 0"/></clipPath><clipPath id="d"><path d="M32 11h4v2h-4Zm0 0"/></clipPath><clipPath id="e"><path d="m32.68 4.688 4.05 7.062-4.492 2.578-4.05-7.062Zm0 0"/></clipPath><clipPath id="f"><path d="m32.68 4.688 4.05 7.062-4.492 2.578-4.05-7.062Zm0 0"/></clipPath><clipPath id="g"><path d="M29 6h2v4h-2Zm0 0"/></clipPath><clipPath id="h"><path d="m32.68 4.688 4.05 7.062-4.492 2.578-4.05-7.062Zm0 0"/></clipPath><clipPath id="i"><path d="m32.68 4.688 4.05 7.062-4.492 2.578-4.05-7.062Zm0 0"/></clipPath><clipPath id="j"><path d="M2 19h4v4H2Zm0 0"/></clipPath><clipPath id="k"><path d="m3.535 26.113-3.242-8.27 5.512-2.16 3.242 8.27Zm0 0"/></clipPath><clipPath id="l"><path d="m3.535 26.113-3.242-8.27 5.512-2.16 3.242 8.27Zm0 0"/></clipPath><clipPath id="m"><path d="M1 17h4v2H1Zm0 0"/></clipPath><clipPath id="n"><path d="m3.535 26.113-3.242-8.27 5.512-2.16 3.242 8.27Zm0 0"/></clipPath><clipPath id="o"><path d="m3.535 26.113-3.242-8.27 5.512-2.16 3.242 8.27Zm0 0"/></clipPath><clipPath id="p"><path d="M6 20h2v5H6Zm0 0"/></clipPath><clipPath id="q"><path d="m3.535 26.113-3.242-8.27 5.512-2.16 3.242 8.27Zm0 0"/></clipPath><clipPath id="r"><path d="m3.535 26.113-3.242-8.27 5.512-2.16 3.242 8.27Zm0 0"/></clipPath></defs><g clip-path="url(#a)"><g clip-path="url(#b)"><g clip-path="url(#c)"><path d="M34.195 7.902c-.175-.007-.199.012-.605.45-.235.253-.766.812-1.172 1.234-.75.777-.973 1.066-.938 1.258.02.133.149.14.356.02.39-.223 1.973-1.716 2.434-2.29.292-.375.265-.648-.075-.672Zm0 0" style="stroke:none;fill-rule:evenodd;fill:#ff4579;fill-opacity:1"/></g></g></g><g clip-path="url(#d)"><g clip-path="url(#e)"><g clip-path="url(#f)"><path d="M35.379 11.645a1.612 1.612 0 0 0-.469-.008c-.172.015-.676.066-1.12.105-.825.078-1.36.235-1.282.375.219.38 2.754.29 3.035-.113.11-.149.043-.293-.164-.36Zm0 0" style="stroke:none;fill-rule:evenodd;fill:#ff4579;fill-opacity:1"/></g></g></g><g clip-path="url(#g)"><g clip-path="url(#h)"><g clip-path="url(#i)"><path d="M29.715 6.688c-.293-.133-.406.308-.293 1.144.16 1.219.422 2.117.629 2.121.113.008.199-.344.176-.75-.04-.707-.278-2.258-.375-2.433a.584.584 0 0 0-.137-.082Zm0 0" style="stroke:none;fill-rule:evenodd;fill:#ff4579;fill-opacity:1"/></g></g></g><g style="fill:#ff4579;fill-opacity:1"><path d="M-.25-2.563a5.977 5.977 0 0 0-.188-.624 5.163 5.163 0 0 0-.171-.438 10.428 10.428 0 0 1-.157-.328 2.638 2.638 0 0 0-.14-.235 1.58 1.58 0 0 1-.188-.469c-.02-.081-.015-.148.016-.202a.281.281 0 0 1 .11-.125.428.428 0 0 1 .171-.079c.055-.019.102-.035.14-.046l.579-.141c.043-.008.094-.02.156-.031a.882.882 0 0 1 .203 0 .36.36 0 0 1 .188.093l1.734 1.922A16.58 16.58 0 0 0 2-3.859a5.32 5.32 0 0 0-.156-.422 4.032 4.032 0 0 0-.157-.297 9.209 9.209 0 0 0-.14-.234 3.468 3.468 0 0 0-.11-.22 1.258 1.258 0 0 1-.078-.25.253.253 0 0 1 .016-.202.428.428 0 0 1 .281-.204.547.547 0 0 1 .14-.03l.595-.157c.03-.008.07-.02.125-.031a.438.438 0 0 1 .187-.016.534.534 0 0 1 .172.063c.05.03.086.09.11.171.019.094.03.184.03.266.008.074.008.152 0 .234 0 .075-.007.168-.015.282a4.93 4.93 0 0 0 .078.828c.031.18.078.39.14.64.063.243.118.45.173.626.062.167.117.312.171.437a9.505 9.505 0 0 0 .313.547c.04.062.078.137.11.219.038.074.07.156.093.25.02.086.016.152-.016.203a.348.348 0 0 1-.125.125.857.857 0 0 1-.171.078c-.055.012-.094.023-.125.031l-.594.156a.385.385 0 0 0-.125.032.684.684 0 0 1-.297 0A.254.254 0 0 1 2.5-.828L.766-2.75c.062.23.117.43.171.594.063.168.118.312.172.437.063.117.114.215.157.297.05.086.097.164.14.234a.902.902 0 0 1 .125.204c.04.062.07.14.094.234.02.086.016.152-.016.203a.403.403 0 0 1-.14.14 1.165 1.165 0 0 1-.157.079l-.14.031-.578.14a4.699 4.699 0 0 0-.156.048.804.804 0 0 1-.172.015.433.433 0 0 1-.172-.062C.05-.188.02-.242 0-.328a3.826 3.826 0 0 1-.047-.266 1.174 1.174 0 0 1 0-.234v-.281a3.7 3.7 0 0 0-.015-.344 6.76 6.76 0 0 0-.047-.469 7.596 7.596 0 0 0-.141-.64Zm0 0" style="stroke:none" transform="translate(8.503 17.282)"/></g><g style="fill:#ff4579;fill-opacity:1"><path d="M-.266-1.766a2.04 2.04 0 0 1-.015-.656 1.61 1.61 0 0 1 .234-.64c.113-.208.274-.383.484-.532a2.47 2.47 0 0 1 .797-.328c.188-.031.364-.047.532-.047.175 0 .336.04.484.11.145.074.27.171.375.296a.897.897 0 0 1 .219.454c.039.21.047.39.015.546-.03.157-.09.297-.171.422a1.59 1.59 0 0 1-.297.329 1.193 1.193 0 0 1-.344.218 1.208 1.208 0 0 1-.313.125c-.086.012-.152.024-.203.032l-.078.03c-.012 0-.012.012 0 .032 0 .043.02.074.063.094.05.011.101.015.156.015a.602.602 0 0 0 .156-.015 1.19 1.19 0 0 0 .313-.11c.07-.05.14-.101.203-.156a.852.852 0 0 1 .172-.14.407.407 0 0 1 .187-.079.317.317 0 0 1 .219.016.367.367 0 0 1 .156.11.742.742 0 0 1 .188.343c.02.106-.012.219-.094.344-.074.117-.211.23-.406.344-.2.105-.465.187-.797.25-.305.062-.578.07-.828.015a1.78 1.78 0 0 1-.672-.281 1.737 1.737 0 0 1-.469-.5 2.06 2.06 0 0 1-.266-.64Zm1.25-.64A.82.82 0 0 0 1-2.031c.04.094.102.133.188.11.093-.02.171-.083.234-.188a1.4 1.4 0 0 0 .14-.407c.04-.156.04-.28 0-.375-.042-.093-.105-.129-.187-.109-.086.023-.164.09-.234.203a1.453 1.453 0 0 0-.157.39Zm0 0" style="stroke:none" transform="translate(12.662 16.236)"/></g><g style="fill:#ff4579;fill-opacity:1"><path d="M-.438-3.203a.315.315 0 0 1 .063-.235.314.314 0 0 1 .219-.124l1.125-.172a.881.881 0 0 1 .203 0 .34.34 0 0 1 .203.062c.05.043.082.11.094.203a.692.692 0 0 1-.016.235.57.57 0 0 0 0 .28c.02.138.067.274.14.407.083.137.16.29.235.453.04-.176.07-.344.094-.5.031-.156.035-.3.016-.437a1.11 1.11 0 0 0-.094-.266.735.735 0 0 1-.063-.219c-.011-.093.004-.164.047-.218a.345.345 0 0 1 .156-.11.685.685 0 0 1 .204-.062L2.765-4a.993.993 0 0 1 .218 0 .47.47 0 0 1 .188.078c.05.031.082.094.094.188a.692.692 0 0 1-.016.234.777.777 0 0 0 .016.281c.02.117.046.219.078.313.031.086.07.168.125.25.05.086.101.183.156.297.031-.176.063-.344.094-.5.039-.157.05-.301.031-.438a1.11 1.11 0 0 0-.094-.265.529.529 0 0 1-.078-.22c-.012-.093.004-.163.047-.218a.345.345 0 0 1 .156-.11.92.92 0 0 1 .203-.062l.813-.125a.37.37 0 0 1 .25.063c.07.043.113.109.125.203a.587.587 0 0 1-.016.218.934.934 0 0 1-.078.22c-.031.085-.074.187-.125.312-.055.125-.11.281-.172.469-.062.18-.14.398-.234.656-.031.117-.063.25-.094.406-.031.148-.07.29-.11.422a1.728 1.728 0 0 1-.14.39.876.876 0 0 1-.219.297.538.538 0 0 1-.296.157.536.536 0 0 1-.329-.063 1.007 1.007 0 0 1-.265-.265 6.257 6.257 0 0 1-.219-.36 7.314 7.314 0 0 1-.219-.39c-.031.148-.07.292-.11.437a1.549 1.549 0 0 1-.36.75.49.49 0 0 1-.311.156.498.498 0 0 1-.313-.062 1.11 1.11 0 0 1-.234-.235 3.485 3.485 0 0 1-.219-.343C1.034-.984.96-1.109.89-1.234a4.238 4.238 0 0 0-.204-.375 22.215 22.215 0 0 0-.359-.5 4.114 4.114 0 0 0-.297-.344 17.025 17.025 0 0 0-.218-.266 1.329 1.329 0 0 1-.157-.219 1 1 0 0 1-.094-.265Zm0 0" style="stroke:none" transform="translate(15.985 15.524)"/></g><g style="fill:#ff4579;fill-opacity:1"><path d="M0-.313a1.163 1.163 0 0 1 0-.234c.008-.07.023-.144.047-.219.02-.07.035-.148.047-.234a2.94 2.94 0 0 0 .047-.344c.007-.144.015-.316.015-.515a8.126 8.126 0 0 0-.14-1.422 6.894 6.894 0 0 0-.094-.453c-.04-.125-.078-.235-.11-.329-.039-.093-.078-.171-.109-.234a1.957 1.957 0 0 1-.078-.219 1.148 1.148 0 0 1-.063-.265c-.007-.082.008-.145.047-.188a.476.476 0 0 1 .157-.093.335.335 0 0 1 .172-.047c.054-.008.097-.02.14-.032l.906-.078a.7.7 0 0 1 .141-.015.383.383 0 0 1 .172.015c.07.012.129.032.172.063.039.031.066.09.078.172.008.093.008.183 0 .265a.872.872 0 0 1-.031.235 2.456 2.456 0 0 0-.063.265 15.07 15.07 0 0 1-.047.344 5.057 5.057 0 0 0 .032 1.094c.03.312.062.574.093.781a3.981 3.981 0 0 0 .219.828c.04.086.078.164.11.235.03.062.054.125.077.187.02.063.036.14.047.234.008.086-.007.153-.046.204a.375.375 0 0 1-.141.109.88.88 0 0 1-.172.047.7.7 0 0 0-.14.015l-.907.078a1.098 1.098 0 0 1-.156.032.906.906 0 0 1-.172-.016.768.768 0 0 1-.172-.078C.035-.165.008-.227 0-.313Zm0 0" style="stroke:none" transform="translate(21.603 14.748)"/></g><g style="fill:#ff4579;fill-opacity:1"><path d="M.016.781V.578A.735.735 0 0 1 .078.36.587.587 0 0 1 .203.188.279.279 0 0 1 .391.124a.682.682 0 0 1 .218 0c.063.02.118.04.172.063.063.03.125.05.188.062.062.02.129.031.203.031a.705.705 0 0 0 .281-.094.31.31 0 0 0 .14-.234 2.358 2.358 0 0 1-.265-.406L1.094-.97a6.761 6.761 0 0 0-.266-.578 7.395 7.395 0 0 0-.328-.53 5.39 5.39 0 0 0-.266-.375 5.085 5.085 0 0 0-.203-.266 1.734 1.734 0 0 1-.125-.234.876.876 0 0 1-.078-.281.318.318 0 0 1 .328-.329l1.125-.078c.063 0 .13.008.203.016a.47.47 0 0 1 .188.078c.05.043.082.11.094.203a.658.658 0 0 1-.047.235 1.07 1.07 0 0 0-.032.28c.008.138.047.278.11.423.07.148.144.304.219.469a7.87 7.87 0 0 1 .125-.485c.05-.156.07-.3.062-.437a.567.567 0 0 0-.062-.266.658.658 0 0 1-.047-.234c-.012-.094.004-.16.047-.204a.337.337 0 0 1 .171-.109c.07-.02.141-.035.204-.047l.828-.047a.36.36 0 0 1 .234.079c.07.054.11.124.11.218a.496.496 0 0 1-.016.203 2.816 2.816 0 0 1-.094.22c-.043.085-.101.187-.172.312a15.915 15.915 0 0 0-.5 1.063c-.086.21-.168.421-.25.64-.074.21-.14.414-.203.61a6 6 0 0 0-.14.515c-.055.3-.133.547-.235.734a1.45 1.45 0 0 1-.36.453 1.9 1.9 0 0 1-.405.235c-.137.05-.262.082-.375.093-.211.008-.375-.023-.5-.093a.802.802 0 0 1-.297-.297A.938.938 0 0 1 .016.78Zm0 0" style="stroke:none" transform="translate(23.605 14.535)"/></g><g style="fill:#ff4579;fill-opacity:1"><path d="M.516-.047A1.724 1.724 0 0 1 .28-.03a.315.315 0 0 1-.156-.063C.082-.125.062-.172.062-.234a.502.502 0 0 1 0-.188.617.617 0 0 1 .079-.14.914.914 0 0 0 .093-.157l.11-.219c.039-.093.078-.207.11-.343a9.79 9.79 0 0 1 .093-.516c.039-.156.07-.285.094-.39.02-.114.039-.22.062-.313.02-.094.035-.188.047-.281.008-.094.023-.196.047-.313.031-.113.055-.242.078-.39l.11-.532c.03-.132.05-.238.062-.312a.874.874 0 0 0 0-.203c0-.051-.008-.102-.016-.157A1.507 1.507 0 0 1 1-4.89v-.078c0-.031.004-.062.016-.093a.43.43 0 0 1 .078-.11.369.369 0 0 1 .172-.062l.953-.079h.172a.37.37 0 0 1 .156.032c.039.011.082.047.125.11a3.656 3.656 0 0 1 .312.702 14.827 14.827 0 0 1 .391 1.063c.05.136.098.273.14.406.051.125.102.258.157.39.05.137.11.29.172.454.062.168.14.367.234.594.05.117.098.218.14.312.052.086.098.152.141.203.051.055.094.102.125.14a.34.34 0 0 1 .094.126c.02.043.035.101.047.172a.218.218 0 0 1-.063.156.28.28 0 0 1-.156.094 1.128 1.128 0 0 1-.203.015l-1.312.11a.351.351 0 0 1-.157 0 .486.486 0 0 1-.14-.078.142.142 0 0 1-.063-.126.492.492 0 0 1 0-.187c.008-.05.02-.098.031-.14a.358.358 0 0 0 .032-.157 1.314 1.314 0 0 0 0-.25c0-.062-.008-.125-.016-.187l-.89.078c0 .031.003.062.015.093a.392.392 0 0 1 .016.094c.02.106.039.188.062.25a.68.68 0 0 1 .063.14c.02.032.039.075.062.126a.72.72 0 0 1 .047.187.218.218 0 0 1-.047.141.36.36 0 0 1-.125.078.642.642 0 0 1-.156.047ZM1.594-2.5l.625-.047a2.774 2.774 0 0 1-.125-.328 7.31 7.31 0 0 0-.14-.375.92.92 0 0 0-.079-.203c-.031-.05-.059-.078-.078-.078a.305.305 0 0 0-.063.125c-.023.062-.043.14-.062.234-.012.086-.024.18-.031.281l-.032.25a1.088 1.088 0 0 0-.015.141Zm0 0" style="stroke:none" transform="translate(11.022 24.244)"/></g><g style="fill:#ff4579;fill-opacity:1"><path d="M1.406-.188A1.213 1.213 0 0 1 .672-.28C.46-.383.282-.562.125-.812c-.145-.25-.25-.567-.313-.954-.101-.601-.082-1.066.063-1.39.145-.332.383-.524.719-.578.133-.02.254-.02.36 0a.76.76 0 0 1 .28.078c.07.043.13.086.172.125a.31.31 0 0 0 .094.047c.02-.008.023-.024.016-.047 0-.02-.008-.063-.016-.125a.983.983 0 0 0-.094-.313 2.101 2.101 0 0 0-.156-.328 2.597 2.597 0 0 1-.172-.328 1.489 1.489 0 0 1-.11-.39A.31.31 0 0 1 1-5.22a.477.477 0 0 1 .14-.125.325.325 0 0 1 .173-.047.64.64 0 0 0 .14-.03l.828-.141a.67.67 0 0 0 .14-.016.753.753 0 0 1 .188 0c.07.012.13.039.172.078.051.031.082.09.094.172.031.148.04.297.031.453-.011.148-.027.309-.047.484-.011.18-.015.375-.015.594 0 .211.02.43.062.656.051.313.098.575.14.782.052.199.099.367.142.5.05.125.097.23.14.312.04.086.078.156.11.219.039.062.07.125.093.187.031.063.055.141.078.235.008.086-.007.152-.046.203a.428.428 0 0 1-.126.11.467.467 0 0 1-.156.062.306.306 0 0 0-.11.015 1.724 1.724 0 0 1-.233.016 1.74 1.74 0 0 0-.22-.016c-.073 0-.163.008-.265.016a2.055 2.055 0 0 0-.5.172 1.5 1.5 0 0 1-.234.078 2.925 2.925 0 0 1-.313.063Zm-.25-1.796c.04.261.102.468.188.625.082.156.172.23.265.218.082-.02.141-.117.172-.296a2.097 2.097 0 0 0-.015-.657 1.94 1.94 0 0 0-.188-.61c-.086-.155-.168-.222-.25-.202-.094.011-.156.105-.187.281-.032.168-.028.383.015.64Zm0 0" style="stroke:none" transform="translate(15.85 23.83)"/></g><g style="fill:#ff4579;fill-opacity:1"><path d="M1.39-.281a1.23 1.23 0 0 1-.734-.031 1.312 1.312 0 0 1-.594-.5c-.164-.239-.296-.551-.39-.938-.133-.582-.14-1.047-.016-1.39.117-.344.336-.555.656-.641a.877.877 0 0 1 .36-.016.8.8 0 0 1 .281.078.829.829 0 0 1 .188.094c.05.031.082.043.093.031.02 0 .024-.008.016-.031 0-.02-.008-.063-.016-.125a1.09 1.09 0 0 0-.125-.313c-.054-.1-.109-.207-.171-.312a27.316 27.316 0 0 1-.188-.344 2.341 2.341 0 0 1-.14-.375.223.223 0 0 1 .03-.172.428.428 0 0 1 .282-.203.547.547 0 0 1 .14-.031l.813-.203.14-.031a.438.438 0 0 1 .36.046c.05.032.082.086.094.157.039.148.062.297.062.453a5 5 0 0 1 0 .484 5.622 5.622 0 0 0 .141 1.266c.07.305.14.555.203.75.063.2.117.36.172.484.062.125.113.23.156.313.05.086.098.152.14.203a.7.7 0 0 1 .095.187c.03.063.054.141.078.235.02.074.015.136-.016.187a.262.262 0 0 1-.11.125 1.165 1.165 0 0 1-.156.078.578.578 0 0 1-.109.016.772.772 0 0 1-.234.031h-.22a.796.796 0 0 0-.25.047 1.32 1.32 0 0 0-.28.094 1.1 1.1 0 0 0-.22.11 2.448 2.448 0 0 1-.53.187ZM1-2.062c.05.25.125.453.219.609.101.156.203.226.297.203.093-.02.144-.117.156-.297a2.758 2.758 0 0 0-.063-.656c-.062-.258-.14-.457-.234-.594-.094-.144-.188-.207-.281-.187-.094.023-.153.117-.172.28-.012.169.015.384.078.642Zm0 0" style="stroke:none" transform="translate(19.643 23.205)"/></g><g style="fill:#ff4579;fill-opacity:1"><path d="M-.438-1.734a1.831 1.831 0 0 1-.093-.657 1.5 1.5 0 0 1 .156-.656c.105-.207.258-.394.453-.562a1.97 1.97 0 0 1 .75-.407c.176-.062.348-.097.516-.109a1.4 1.4 0 0 1 .5.063.944.944 0 0 1 .656.656c.063.199.082.383.063.547a1.13 1.13 0 0 1-.126.453 1.655 1.655 0 0 1-.25.36 1.185 1.185 0 0 1-.312.25 1.153 1.153 0 0 1-.297.155 1.178 1.178 0 0 0-.203.063l-.078.031c-.012.012-.012.027 0 .047.008.043.035.07.078.078h.156a1.002 1.002 0 0 0 .453-.172c.07-.062.133-.125.188-.187a2.02 2.02 0 0 1 .14-.157.414.414 0 0 1 .406-.11.735.735 0 0 1 .173.095.416.416 0 0 1 .14.156c.031.063.055.121.078.172.032.094.016.203-.046.328-.063.125-.188.258-.376.39a2.695 2.695 0 0 1-.765.36 2.146 2.146 0 0 1-.828.11 1.77 1.77 0 0 1-.688-.235 1.934 1.934 0 0 1-.531-.453 1.808 1.808 0 0 1-.313-.61ZM.75-2.5c-.012.18.004.309.047.39.039.087.098.11.172.079.094-.02.164-.086.219-.203.062-.125.101-.27.125-.438.007-.156-.012-.273-.063-.36-.043-.081-.105-.113-.188-.093-.085.031-.156.105-.218.219A.843.843 0 0 0 .75-2.5Zm0 0" style="stroke:none" transform="translate(23.375 22.303)"/></g><g style="fill:#ff4579;fill-opacity:1"><path d="M1.344-.469a1.32 1.32 0 0 1-.75.063 1.354 1.354 0 0 1-.64-.406 2.975 2.975 0 0 1-.516-.875c-.22-.563-.29-1.02-.22-1.375.075-.352.266-.594.579-.72a.921.921 0 0 1 .344-.077c.101 0 .195.011.28.03.095.024.165.044.22.063.05.024.082.032.093.032.02-.008.024-.02.016-.032a.721.721 0 0 1-.047-.125 1.015 1.015 0 0 0-.156-.28 4.348 4.348 0 0 0-.235-.298C.238-4.562.16-4.66.078-4.766a2.413 2.413 0 0 1-.187-.359.237.237 0 0 1 .015-.188.318.318 0 0 1 .094-.14c.04-.04.086-.07.14-.094.063-.02.11-.035.141-.047l.781-.312c.04-.02.086-.04.141-.063A.48.48 0 0 1 1.375-6a.3.3 0 0 1 .188.031c.05.024.085.07.109.14.062.138.101.282.125.438.031.149.055.313.078.5.02.18.05.371.094.579.05.199.117.414.203.64.113.293.219.531.312.719.094.187.176.34.25.453.07.117.133.21.188.281.062.074.117.137.172.188.05.054.094.11.125.172.031.054.066.12.11.203.03.086.034.152.015.203a.345.345 0 0 1-.11.14.404.404 0 0 1-.14.094.212.212 0 0 1-.094.032 3.285 3.285 0 0 1-.234.078 4.91 4.91 0 0 1-.22.03 1.553 1.553 0 0 0-.25.063 1.5 1.5 0 0 0-.25.141c-.073.043-.14.09-.202.14a1.617 1.617 0 0 1-.219.126 3.12 3.12 0 0 1-.281.14ZM.719-2.172c.094.242.191.43.297.563.113.136.21.187.296.156.094-.04.133-.149.125-.328 0-.176-.046-.383-.14-.625a2.012 2.012 0 0 0-.328-.563c-.106-.133-.203-.18-.297-.14-.086.03-.125.136-.125.312.008.168.066.375.172.625Zm0 0" style="stroke:none" transform="translate(26.787 21.229)"/></g><g style="fill:#ff4579;fill-opacity:1"><path d="M-1.469-3.953a1.168 1.168 0 0 1-.11-.485c0-.164.048-.312.141-.437a.92.92 0 0 1 .407-.328.884.884 0 0 1 .484-.094.841.841 0 0 1 .406.188c.125.105.223.234.297.39.051.094.086.211.11.344.02.125.03.266.03.422.009.148.017.293.017.437.007.137.019.278.03.422.02.156.04.297.063.422.031.117.055.227.078.328a.771.771 0 0 1 .047.235.155.155 0 0 1-.078.14C.398-1.945.348-1.957.297-2a1.926 1.926 0 0 1-.156-.172l-.203-.265a8.146 8.146 0 0 0-.282-.329 2.825 2.825 0 0 0-.297-.312 12.245 12.245 0 0 1-.328-.281 4.249 4.249 0 0 1-.297-.297 2.374 2.374 0 0 1-.203-.297ZM1.156-.484a.706.706 0 0 1-.218.046 2.92 2.92 0 0 1-.313-.015 1.384 1.384 0 0 1-.36-.078 1.3 1.3 0 0 1-.312-.156.616.616 0 0 1-.203-.266.595.595 0 0 1-.047-.281c0-.094.031-.176.094-.25a.612.612 0 0 1 .187-.188.422.422 0 0 1 .22-.031c.081 0 .16.012.234.031.07.024.14.043.203.063.007-.051.023-.114.046-.188a.667.667 0 0 1 .297-.344.601.601 0 0 1 .266-.03c.094 0 .176.03.25.093a.61.61 0 0 1 .188.234.78.78 0 0 1 .046.328 1.504 1.504 0 0 1-.078.329 1.224 1.224 0 0 1-.14.328c-.063.093-.133.18-.204.25a.504.504 0 0 1-.156.125Zm0 0" style="stroke:none" transform="translate(30.338 19.807)"/></g><g clip-path="url(#j)"><g clip-path="url(#k)"><g clip-path="url(#l)"><path d="M2.41 22.39c.188.04.215.02.727-.386.293-.238.957-.758 1.468-1.149.934-.722 1.223-1 1.215-1.21-.004-.145-.14-.176-.386-.079-.454.18-2.407 1.54-2.997 2.086-.378.36-.39.66-.027.739Zm0 0" style="stroke:none;fill-rule:evenodd;fill:#ff4579;fill-opacity:1"/></g></g></g><g clip-path="url(#m)"><g clip-path="url(#n)"><g clip-path="url(#o)"><path d="M1.73 18.152c.083.035.31.078.504.086.192.008.743.035 1.23.063.907.047 1.509-.035 1.446-.2-.172-.445-2.933-.753-3.3-.367-.145.145-.094.313.12.418Zm0 0" style="stroke:none;fill-rule:evenodd;fill:#ff4579;fill-opacity:1"/></g></g></g><g clip-path="url(#p)"><g clip-path="url(#q)"><g clip-path="url(#r)"><path d="M7.063 24.426c.296.187.492-.27.503-1.196.02-1.343-.12-2.355-.343-2.39-.121-.031-.27.34-.313.777-.07.778-.062 2.492.02 2.695.008.02.066.07.133.114Zm0 0" style="stroke:none;fill-rule:evenodd;fill:#ff4579;fill-opacity:1"/></g></g></g></svg>